D:\school\WTK\thesis\model\3dpredictsim\Results\debug\Pog_s1_tmt_bCst_d00_k1000_ig24_act_TTC_GRF.mot
nRows=17
nColumns=19

name D:\school\WTK\thesis\model\3dpredictsim\Results\debug\Pog_s1_tmt_bCst_d00_k1000_ig24_act_TTC_GRF.mot
datacolumns 19
datarows 17
range 0.5119659886 0.6757951050
endheader
time 	ground_force_vx	ground_force_vy	ground_force_vz	ground_force_px	ground_force_py	ground_force_pz	1_ground_force_vx	1_ground_force_vy	1_ground_force_vz	1_ground_force_px	1_ground_force_py	1_ground_force_pz	ground_torque_x	ground_torque_y	ground_torque_z	1_ground_torque_x	1_ground_torque_y	1_ground_torque_z
        0.5119659886	      127.7657784117	      532.4792808699	       28.8315726314	        0.3623055772	        0.0000000000	        0.0824435556	      -28.9823103409	       54.0874960874	      -59.2436561051	        0.7970671839	        0.0000000000	       -0.1398288813	        0.0000000000	        0.0000000000	        0.0000000000	        0.0000000000	        0.0000000000	        0.0000000000	
        0.5222053084	      111.8846862848	      457.5232670136	       39.2199820095	        0.3722643311	        0.0000000000	        0.0812541745	      -11.8694405521	      120.6347390688	     -118.1175611910	        0.8035293679	        0.0000000000	       -0.1353072525	        0.0000000000	        0.0000000000	        0.0000000000	        0.0000000000	        0.0000000000	        0.0000000000	
        0.5324446281	       92.6409125725	      388.8295007617	       54.4230020602	        0.3866548482	        0.0000000000	        0.0792268674	       16.4482922801	      217.1724460337	      -60.6074610801	        0.8128142712	        0.0000000000	       -0.1309872423	        0.0000000000	        0.0000000000	        0.0000000000	        0.0000000000	        0.0000000000	        0.0000000000	
        0.5426839479	       84.9823834762	      352.4614561358	       64.5765999254	        0.3919564730	        0.0000000000	        0.0785249963	       -4.4997443330	      362.5470947150	       -5.1091059036	        0.8276789716	        0.0000000000	       -0.1291388171	        0.0000000000	        0.0000000000	        0.0000000000	        0.0000000000	        0.0000000000	        0.0000000000	
        0.5529232677	       78.9720359333	      272.7700293267	       60.3024813019	        0.3925303603	        0.0000000000	        0.0788592330	      -42.7370725560	      492.8430802403	       14.6881975412	        0.8400347405	        0.0000000000	       -0.1268848218	        0.0000000000	        0.0000000000	        0.0000000000	        0.0000000000	        0.0000000000	        0.0000000000	
        0.5631625875	       44.3752100727	      134.1970834280	       32.5530071837	        0.3927315590	        0.0000000000	        0.0787797436	      -99.6686545785	      659.8765144102	       22.8183931511	        0.8584364162	        0.0000000000	       -0.1204172300	        0.0000000000	        0.0000000000	        0.0000000000	        0.0000000000	        0.0000000000	        0.0000000000	
        0.5734019072	        0.3499836477	        7.2691744972	        1.1938046084	        0.0000000000	        0.0000000000	        0.0000000000	     -128.4093755172	      789.1515645471	       32.6418985389	        0.8729163268	        0.0000000000	       -0.1140777249	        0.0000000000	        0.0000000000	        0.0000000000	        0.0000000000	        0.0000000000	        0.0000000000	
        0.5836412270	        0.0000038322	       -0.0000037050	        0.0000015182	        0.0000000000	        0.0000000000	        0.0000000000	     -140.1204608628	      815.1280233769	       29.6730155442	        0.8860890050	        0.0000000000	       -0.1088206280	        0.0000000000	        0.0000000000	        0.0000000000	        0.0000000000	        0.0000000000	        0.0000000000	
        0.5938805468	        0.0000930273	       -0.0000739417	        0.0000543337	        0.0000000000	        0.0000000000	        0.0000000000	     -134.1994691956	      776.6063899698	       19.9357570342	        0.8960340147	        0.0000000000	       -0.1048371929	        0.0000000000	        0.0000000000	        0.0000000000	        0.0000000000	        0.0000000000	        0.0000000000	
        0.6041198666	        0.0295133107	       -0.0185092649	        0.0168577665	        0.0000000000	        0.0000000000	        0.0000000000	     -123.1318899406	      719.3228674612	       10.6505476198	        0.9045840439	        0.0000000000	       -0.1014959614	        0.0000000000	        0.0000000000	        0.0000000000	        0.0000000000	        0.0000000000	        0.0000000000	
        0.6143591863	        0.2356544772	       -0.1239159563	        0.1179044479	        0.0000000000	        0.0000000000	        0.0000000000	     -115.4789802284	      685.8289942621	        5.3411891192	        0.9120085214	        0.0000000000	       -0.0987289123	        0.0000000000	        0.0000000000	        0.0000000000	        0.0000000000	        0.0000000000	        0.0000000000	
        0.6245985061	        0.1677198958	       -0.0801085939	        0.0720908275	        0.0000000000	        0.0000000000	        0.0000000000	     -108.5493674670	      663.9638044161	        3.8547809140	        0.9181647483	        0.0000000000	       -0.0964650397	        0.0000000000	        0.0000000000	        0.0000000000	        0.0000000000	        0.0000000000	        0.0000000000	
        0.6348378259	       -0.4067741764	        0.1869361573	       -0.1445570058	        0.0000000000	        0.0000000000	        0.0000000000	      -99.9073227371	      635.2712871985	        3.6552865619	        0.9236797309	        0.0000000000	       -0.0944459647	        0.0000000000	        0.0000000000	        0.0000000000	        0.0000000000	        0.0000000000	        0.0000000000	
        0.6450771456	       -0.6152256975	        0.2739493441	       -0.1771637165	        0.0000000000	        0.0000000000	        0.0000000000	      -92.0004864918	      607.6464427052	        4.1426938667	        0.9287984496	        0.0000000000	       -0.0925661032	        0.0000000000	        0.0000000000	        0.0000000000	        0.0000000000	        0.0000000000	        0.0000000000	
        0.6553164654	       -0.4441010567	        0.1912397574	       -0.1133053743	        0.0000000000	        0.0000000000	        0.0000000000	      -84.8331354318	      584.1353431587	        4.8573389103	        0.9334466692	        0.0000000000	       -0.0908542537	        0.0000000000	        0.0000000000	        0.0000000000	        0.0000000000	        0.0000000000	        0.0000000000	
        0.6655557852	       -0.2969210521	        0.1238382752	       -0.0729292712	        0.0000000000	        0.0000000000	        0.0000000000	      -78.2913324214	      563.6793121791	        5.2333406351	        0.9377526261	        0.0000000000	       -0.0892663294	        0.0000000000	        0.0000000000	        0.0000000000	        0.0000000000	        0.0000000000	        0.0000000000	
        0.6757951050	       -0.2081411701	        0.0840990267	       -0.0488776640	        0.0000000000	        0.0000000000	        0.0000000000	      -72.3961707596	      545.7667283181	        5.2682439620	        0.9417518109	        0.0000000000	       -0.0878014022	        0.0000000000	        0.0000000000	        0.0000000000	        0.0000000000	        0.0000000000	        0.0000000000	
